<mxfile host="app.diagrams.net" modified="2021-04-11T16:52:16.385Z" agent="5.0 (Windows NT 10.0; Win64; x64) AppleWebKit/537.36 (KHTML, like Gecko) Chrome/89.0.4389.114 Safari/537.36 Edg/89.0.774.68" etag="Ts7xqZhYQecDdtUFoOj6" version="14.5.10" type="github">
  <diagram id="qWIvClj0-aXJTL_WA8li" name="Page-1">
    <mxGraphModel dx="1374" dy="762" grid="1" gridSize="10" guides="1" tooltips="1" connect="1" arrows="1" fold="1" page="1" pageScale="1" pageWidth="827" pageHeight="1169" math="0" shadow="0">
      <root>
        <mxCell id="0" />
        <mxCell id="1" parent="0" />
        <mxCell id="Y_pHzwNKsN-A6EdkPY4s-1" value="User" style="shape=umlFrame;whiteSpace=wrap;html=1;rounded=1;" parent="1" vertex="1">
          <mxGeometry x="50" y="60" width="300" height="520" as="geometry" />
        </mxCell>
        <mxCell id="Y_pHzwNKsN-A6EdkPY4s-2" style="edgeStyle=orthogonalEdgeStyle;rounded=0;orthogonalLoop=1;jettySize=auto;html=1;exitX=0.5;exitY=1;exitDx=0;exitDy=0;entryX=0;entryY=0.5;entryDx=0;entryDy=0;" parent="1" target="Y_pHzwNKsN-A6EdkPY4s-21" edge="1">
          <mxGeometry relative="1" as="geometry">
            <Array as="points">
              <mxPoint x="200" y="455" />
              <mxPoint x="460" y="455" />
            </Array>
            <mxPoint x="200" y="435" as="sourcePoint" />
            <mxPoint x="460" y="305" as="targetPoint" />
          </mxGeometry>
        </mxCell>
        <mxCell id="Y_pHzwNKsN-A6EdkPY4s-3" value="decline invitation" style="edgeLabel;html=1;align=center;verticalAlign=middle;resizable=0;points=[];" parent="Y_pHzwNKsN-A6EdkPY4s-2" vertex="1" connectable="0">
          <mxGeometry x="-0.8832" y="-2" relative="1" as="geometry">
            <mxPoint x="82" y="-7" as="offset" />
          </mxGeometry>
        </mxCell>
        <mxCell id="Y_pHzwNKsN-A6EdkPY4s-4" value="Clicks button" style="shape=rhombus;perimeter=rhombusPerimeter;whiteSpace=wrap;html=1;align=center;rounded=0;fillColor=#fff2cc;strokeColor=#EA6B66;" parent="1" vertex="1">
          <mxGeometry x="140" y="380" width="120" height="60" as="geometry" />
        </mxCell>
        <mxCell id="Y_pHzwNKsN-A6EdkPY4s-5" value="System" style="shape=umlFrame;whiteSpace=wrap;html=1;rounded=1;" parent="1" vertex="1">
          <mxGeometry x="370" y="60" width="300" height="520" as="geometry" />
        </mxCell>
        <mxCell id="Y_pHzwNKsN-A6EdkPY4s-6" style="edgeStyle=orthogonalEdgeStyle;rounded=0;orthogonalLoop=1;jettySize=auto;html=1;entryX=0;entryY=0.5;entryDx=0;entryDy=0;" parent="1" source="Y_pHzwNKsN-A6EdkPY4s-7" target="Y_pHzwNKsN-A6EdkPY4s-12" edge="1">
          <mxGeometry relative="1" as="geometry">
            <mxPoint x="400" y="190" as="targetPoint" />
          </mxGeometry>
        </mxCell>
        <mxCell id="Y_pHzwNKsN-A6EdkPY4s-7" value="Clicks on Notifications button in menu bar" style="rounded=1;whiteSpace=wrap;html=1;arcSize=50;fillColor=#fff2cc;strokeColor=#EA6B66;" parent="1" vertex="1">
          <mxGeometry x="140" y="170" width="120" height="40" as="geometry" />
        </mxCell>
        <mxCell id="Y_pHzwNKsN-A6EdkPY4s-8" value="UI" style="shape=umlFrame;whiteSpace=wrap;html=1;rounded=1;" parent="1" vertex="1">
          <mxGeometry x="690" y="60" width="300" height="520" as="geometry" />
        </mxCell>
        <mxCell id="Y_pHzwNKsN-A6EdkPY4s-9" style="edgeStyle=orthogonalEdgeStyle;rounded=0;orthogonalLoop=1;jettySize=auto;html=1;" parent="1" source="Y_pHzwNKsN-A6EdkPY4s-10" target="Y_pHzwNKsN-A6EdkPY4s-7" edge="1">
          <mxGeometry relative="1" as="geometry" />
        </mxCell>
        <mxCell id="Y_pHzwNKsN-A6EdkPY4s-10" value="" style="ellipse;html=1;shape=endState;fillColor=#000000;strokeColor=#ff0000;rounded=1;" parent="1" vertex="1">
          <mxGeometry x="185" y="100" width="30" height="30" as="geometry" />
        </mxCell>
        <mxCell id="Y_pHzwNKsN-A6EdkPY4s-11" style="edgeStyle=orthogonalEdgeStyle;rounded=0;orthogonalLoop=1;jettySize=auto;html=1;endArrow=classic;endFill=1;entryX=0.5;entryY=0;entryDx=0;entryDy=0;" parent="1" source="Y_pHzwNKsN-A6EdkPY4s-12" target="Y_pHzwNKsN-A6EdkPY4s-16" edge="1">
          <mxGeometry relative="1" as="geometry">
            <mxPoint x="130" y="270" as="targetPoint" />
            <Array as="points">
              <mxPoint x="840" y="240" />
              <mxPoint x="200" y="240" />
            </Array>
          </mxGeometry>
        </mxCell>
        <mxCell id="Y_pHzwNKsN-A6EdkPY4s-12" value="Show Dialog with pending invitations" style="rounded=1;whiteSpace=wrap;html=1;arcSize=50;fillColor=#fff2cc;strokeColor=#EA6B66;" parent="1" vertex="1">
          <mxGeometry x="780" y="170" width="120" height="40" as="geometry" />
        </mxCell>
        <mxCell id="Y_pHzwNKsN-A6EdkPY4s-13" style="edgeStyle=orthogonalEdgeStyle;rounded=0;orthogonalLoop=1;jettySize=auto;html=1;entryX=0;entryY=0.5;entryDx=0;entryDy=0;exitX=1;exitY=0.5;exitDx=0;exitDy=0;" parent="1" source="Y_pHzwNKsN-A6EdkPY4s-4" target="Y_pHzwNKsN-A6EdkPY4s-21" edge="1">
          <mxGeometry relative="1" as="geometry">
            <mxPoint x="340" y="310" as="sourcePoint" />
            <Array as="points">
              <mxPoint x="330" y="410" />
              <mxPoint x="330" y="310" />
            </Array>
          </mxGeometry>
        </mxCell>
        <mxCell id="Y_pHzwNKsN-A6EdkPY4s-14" value="accept invitation" style="edgeLabel;html=1;align=center;verticalAlign=middle;resizable=0;points=[];" parent="Y_pHzwNKsN-A6EdkPY4s-13" vertex="1" connectable="0">
          <mxGeometry x="-0.2308" y="-2" relative="1" as="geometry">
            <mxPoint x="-32" y="19" as="offset" />
          </mxGeometry>
        </mxCell>
        <mxCell id="Y_pHzwNKsN-A6EdkPY4s-15" style="edgeStyle=orthogonalEdgeStyle;rounded=0;orthogonalLoop=1;jettySize=auto;html=1;endArrow=none;endFill=0;" parent="1" source="Y_pHzwNKsN-A6EdkPY4s-16" target="Y_pHzwNKsN-A6EdkPY4s-4" edge="1">
          <mxGeometry relative="1" as="geometry" />
        </mxCell>
        <mxCell id="Y_pHzwNKsN-A6EdkPY4s-16" value="Clicks on a pending invitation" style="rounded=1;whiteSpace=wrap;html=1;arcSize=50;fillColor=#fff2cc;strokeColor=#EA6B66;" parent="1" vertex="1">
          <mxGeometry x="140" y="290" width="120" height="40" as="geometry" />
        </mxCell>
        <mxCell id="Y_pHzwNKsN-A6EdkPY4s-17" style="edgeStyle=orthogonalEdgeStyle;rounded=0;orthogonalLoop=1;jettySize=auto;html=1;entryX=0;entryY=0.5;entryDx=0;entryDy=0;" parent="1" source="Y_pHzwNKsN-A6EdkPY4s-21" target="Y_pHzwNKsN-A6EdkPY4s-23" edge="1">
          <mxGeometry relative="1" as="geometry" />
        </mxCell>
        <mxCell id="Y_pHzwNKsN-A6EdkPY4s-18" value="no" style="edgeLabel;html=1;align=center;verticalAlign=middle;resizable=0;points=[];" parent="Y_pHzwNKsN-A6EdkPY4s-17" vertex="1" connectable="0">
          <mxGeometry x="-0.8267" y="-2" relative="1" as="geometry">
            <mxPoint x="27" y="-2" as="offset" />
          </mxGeometry>
        </mxCell>
        <mxCell id="Y_pHzwNKsN-A6EdkPY4s-19" style="edgeStyle=orthogonalEdgeStyle;rounded=0;orthogonalLoop=1;jettySize=auto;html=1;entryX=0;entryY=0.5;entryDx=0;entryDy=0;" parent="1" source="Y_pHzwNKsN-A6EdkPY4s-21" target="Y_pHzwNKsN-A6EdkPY4s-25" edge="1">
          <mxGeometry relative="1" as="geometry">
            <Array as="points">
              <mxPoint x="520" y="380" />
            </Array>
          </mxGeometry>
        </mxCell>
        <mxCell id="Y_pHzwNKsN-A6EdkPY4s-20" value="yes" style="edgeLabel;html=1;align=center;verticalAlign=middle;resizable=0;points=[];" parent="Y_pHzwNKsN-A6EdkPY4s-19" vertex="1" connectable="0">
          <mxGeometry x="-0.3583" y="-4" relative="1" as="geometry">
            <mxPoint x="-56" y="-24" as="offset" />
          </mxGeometry>
        </mxCell>
        <mxCell id="Y_pHzwNKsN-A6EdkPY4s-21" value="Success?" style="shape=rhombus;perimeter=rhombusPerimeter;whiteSpace=wrap;html=1;align=center;rounded=0;fillColor=#fff2cc;strokeColor=#EA6B66;" parent="1" vertex="1">
          <mxGeometry x="460" y="280" width="120" height="60" as="geometry" />
        </mxCell>
        <mxCell id="Y_pHzwNKsN-A6EdkPY4s-34" style="edgeStyle=orthogonalEdgeStyle;rounded=0;orthogonalLoop=1;jettySize=auto;html=1;exitX=1;exitY=0.5;exitDx=0;exitDy=0;entryX=1;entryY=0.5;entryDx=0;entryDy=0;" parent="1" source="Y_pHzwNKsN-A6EdkPY4s-23" target="Y_pHzwNKsN-A6EdkPY4s-32" edge="1">
          <mxGeometry relative="1" as="geometry">
            <Array as="points">
              <mxPoint x="950" y="310" />
              <mxPoint x="950" y="535" />
            </Array>
          </mxGeometry>
        </mxCell>
        <mxCell id="Y_pHzwNKsN-A6EdkPY4s-23" value="Show error" style="rounded=1;whiteSpace=wrap;html=1;arcSize=50;fillColor=#fff2cc;strokeColor=#EA6B66;" parent="1" vertex="1">
          <mxGeometry x="780" y="290" width="120" height="40" as="geometry" />
        </mxCell>
        <mxCell id="Y_pHzwNKsN-A6EdkPY4s-24" style="edgeStyle=orthogonalEdgeStyle;rounded=0;orthogonalLoop=1;jettySize=auto;html=1;entryX=0.5;entryY=0;entryDx=0;entryDy=0;" parent="1" source="Y_pHzwNKsN-A6EdkPY4s-25" target="Y_pHzwNKsN-A6EdkPY4s-27" edge="1">
          <mxGeometry relative="1" as="geometry" />
        </mxCell>
        <mxCell id="Y_pHzwNKsN-A6EdkPY4s-25" value="Show success message" style="rounded=1;whiteSpace=wrap;html=1;arcSize=50;fillColor=#fff2cc;strokeColor=#EA6B66;" parent="1" vertex="1">
          <mxGeometry x="780" y="360" width="120" height="40" as="geometry" />
        </mxCell>
        <mxCell id="Y_pHzwNKsN-A6EdkPY4s-37" style="edgeStyle=orthogonalEdgeStyle;rounded=0;orthogonalLoop=1;jettySize=auto;html=1;exitX=0.5;exitY=1;exitDx=0;exitDy=0;entryX=0.5;entryY=0;entryDx=0;entryDy=0;" parent="1" source="Y_pHzwNKsN-A6EdkPY4s-27" target="Y_pHzwNKsN-A6EdkPY4s-32" edge="1">
          <mxGeometry relative="1" as="geometry" />
        </mxCell>
        <mxCell id="Y_pHzwNKsN-A6EdkPY4s-27" value="Remove the clicked pending invitation from the Dialog" style="rounded=1;whiteSpace=wrap;html=1;arcSize=50;fillColor=#fff2cc;strokeColor=#EA6B66;" parent="1" vertex="1">
          <mxGeometry x="780" y="440" width="120" height="40" as="geometry" />
        </mxCell>
        <mxCell id="Y_pHzwNKsN-A6EdkPY4s-32" value="" style="ellipse;html=1;shape=endState;fillColor=#000000;strokeColor=#ff0000;rounded=1;" parent="1" vertex="1">
          <mxGeometry x="825" y="520" width="30" height="30" as="geometry" />
        </mxCell>
      </root>
    </mxGraphModel>
  </diagram>
</mxfile>
